<?xml version="1.0" encoding="UTF-8"?>
<svg viewBox="0 0 120 120" xmlns="http://www.w3.org/2000/svg">
 <path d="m13.506 92.031h43.95l1.4125-79.75h2.125l0.3499 16.325 17.375-8.175-0.1 7.1 0.2501 7.0875 0.8499 7.0375 1.7001 6.875 2.5124 6.65 3.1126 6.3875 3.5749 6.1625 4.2876 5.625 4.375 4.4875-36.875 7.0875v7.1h44.3l-4.8 5.275-5.05 4.9875-5.4625 4.4375-6.1 3.6375-6.5874 2.775-6.9501 1.925-7.1124 1.05-7.1626 0.175-7.0874-0.6875-6.9251-1.575-6.725-2.475-6.3749-3.3125-5.8376-4.1125-5.1625-4.8875-4.4875-5.45-1.3749-1.7625zm10.988-3.9125l-0.4501-7.125-0.0749-7.075 0.6874-7.0125 1.6875-6.875 2.55-6.6625 3.2625-6.3875 3.875-6 4.5375-5.45 5.25-4.7 5.8001-4.1 3.7-2.4-3.8251 5.9875-3.2999 6.25-2.45 6.6625-1.5876 6.95-0.8 7.0875 0.0376 7.0875 0.9499 7.0125 1.4126 6.475-21.262 10.275m-13.112 0.375l-3.1126-6.3875-2.625-6.5375-1.6875-6.8625-0.7124-7.1125 0.275-7.175 1.2124-7.075 2.0875-6.875 2.9376-6.55 3.7249-6.1125 4.475-5.6 5.1251-4.9875 5.7375-4.2875 6.25-3.575 6.6625-2.725 7.0124-1.8875 7.2001-0.9625 7.2875-0.075 7.2375 0.825 7.0499 1.7125 6.7375 2.6 6.2751 3.5 5.7374 4.3 5.1375 5.0375 4.4876 5.6625 3.8249 6.1875 3.0501 6.6125 2.2249 6.9375 1.3751 7.1125 0.3874 7.15-0.6499 7.0125-1.7126 6.8125-2.5375 6.6125-2.9374 6.5125-0.0875 0.2h-5.6626l3.1876-6.4 2.7499-6.525 1.825-6.8 0.7626-7.0875-0.3501-7.175-1.325-7.1125-2.2875-6.85-3.175-6.4875-4.0125-5.95-4.775-5.3625-5.4875-4.6-6.0999-3.8-6.6125-2.9-6.9251-1.975-7.175-0.975-7.2375 0.05-7.15 1.0875-6.95 2.075-6.5875 2.975-6.075 3.8625-5.4625 4.6625-4.7125 5.3875-3.9124 5.9875-3.125 6.5-2.2876 6.85-1.35 7.1125-0.3749 7.175 0.7124 7.0625 1.8876 6.7875 2.8249 6.5 3.0251 5.925h-5.3125z" fill="#5fbf00" fill-rule="evenodd"/>
</svg>
