<?xml version="1.0" standalone="no"?>
<!DOCTYPE svg PUBLIC "-//W3C//DTD SVG 20010904//EN" "http://www.w3.org/TR/2001/REC-SVG-20010904/DTD/svg10.dtd">
<svg xmlns="http://www.w3.org/2000/svg" version="1.0" width="1920.000000pt" height="1920.000000pt" viewBox="0 0 1920.000000 1920.000000" preserveAspectRatio="xMidYMid meet">
<metadata>
Silhouette image created by Creazilla.com with potrace 1.16, written by Peter Selinger 2001-2019
</metadata>
<g transform="translate(0.000000,1920.000000) scale(0.100000,-0.100000)" fill="#4EDD69">
<path d="M9509 19187 c-162 -60 -277 -319 -309 -697 -14 -160 0 -326 46 -549 51 -244 63 -314 74 -435 10 -111 1 -287 -21 -412 -10 -57 -13 -62 -49 -78 -84 -37 -73 -152 17 -171 16 -4 38 -8 51 -11 22 -4 22 -5 22 -199 l0 -195 -75 0 -75 0 0 -255 0 -255 -22 0 c-13 0 -40 4 -60 9 -57 13 -112 -5 -153 -50 -30 -34 -35 -46 -35 -90 0 -57 18 -98 56 -128 15 -12 25 -23 23 -24 -2 -2 -71 -11 -154 -21 -1123 -131 -2270 -635 -3140 -1380 -49 -42 -91 -73 -93 -67 -2 5 16 37 39 71 68 100 62 186 -16 246 -71 54 -173 36 -222 -37 -14 -21 -28 -39 -32 -39 -3 0 -83 77 -176 170 -93 94 -174 170 -180 170 -5 0 -40 -30 -77 -67 l-68 -68 -135 135 c-74 74 -135 139 -135 145 0 5 14 28 30 49 58 77 28 166 -58 166 -21 0 -42 -4 -48 -9 -11 -12 -129 58 -220 130 -98 78 -198 191 -339 386 -212 292 -304 400 -448 521 -235 199 -503 327 -647 308 -225 -30 -252 -276 -64 -589 58 -95 119 -173 218 -276 117 -120 208 -191 438 -339 275 -177 388 -270 507 -417 107 -132 127 -164 113 -185 -7 -11 -12 -36 -12 -55 0 -83 93 -115 169 -58 l33 26 136 -137 137 -136 -55 -55 -54 -55 182 -183 c100 -100 182 -185 182 -189 0 -3 -22 -20 -49 -38 -53 -33 -91 -94 -91 -143 0 -73 60 -141 133 -152 53 -8 94 7 178 66 32 23 62 39 65 36 3 -3 -30 -48 -74 -99 -44 -51 -130 -160 -192 -243 -667 -888 -1070 -1927 -1177 -3038 l-17 -179 -13 67 c-22 122 -68 170 -161 170 -44 0 -65 -5 -91 -24 -48 -34 -74 -97 -65 -161 l7 -50 -257 0 -256 0 0 -105 0 -105 -189 0 -189 0 -7 57 c-9 72 -45 113 -100 113 -35 0 -43 -6 -98 -70 -17 -21 -113 -44 -247 -61 -126 -15 -266 -5 -520 36 -268 44 -373 55 -524 55 -384 0 -750 -119 -839 -272 -58 -99 -45 -172 46 -263 93 -91 232 -152 442 -191 80 -15 145 -19 320 -18 215 0 224 1 395 38 337 72 383 78 560 79 142 1 261 -9 347 -30 12 -3 25 -15 29 -26 12 -40 45 -67 81 -67 62 0 93 32 107 110 l6 35 190 0 189 1 3 -71 3 -70 259 -3 259 -2 -9 -53 c-4 -28 -7 -66 -7 -83 3 -74 63 -135 142 -141 93 -8 164 66 178 185 3 28 9 50 13 47 4 -2 10 -44 13 -92 34 -478 198 -1164 395 -1653 244 -606 584 -1176 991 -1660 44 -53 76 -99 71 -104 -5 -4 -34 10 -66 33 -100 71 -179 75 -243 10 -75 -75 -58 -186 39 -251 l25 -16 -178 -179 -177 -178 70 -70 c38 -38 70 -74 70 -80 0 -6 -60 -70 -133 -143 l-133 -133 -49 36 c-64 45 -105 47 -146 6 -30 -30 -38 -72 -19 -101 6 -11 0 -31 -22 -70 -86 -155 -228 -301 -443 -460 -77 -57 -175 -129 -218 -161 -252 -185 -459 -420 -577 -654 -63 -126 -83 -205 -78 -305 4 -95 30 -139 102 -175 138 -69 362 2 626 199 184 137 317 288 480 546 161 252 274 386 443 521 119 96 134 104 152 89 35 -29 109 -11 131 32 19 36 13 77 -17 119 -11 16 -19 33 -17 38 2 5 62 70 134 144 l131 136 39 -40 c72 -75 56 -82 259 121 l181 181 35 -52 c47 -73 76 -92 142 -93 45 0 61 5 92 28 90 69 84 171 -17 298 -58 74 -15 56 105 -44 662 -551 1452 -959 2301 -1188 304 -81 766 -160 1076 -182 23 -2 35 -8 35 -17 0 -10 -22 -19 -70 -27 -127 -23 -179 -72 -178 -166 1 -97 85 -166 183 -153 l50 7 0 -237 c0 -197 3 -239 15 -251 12 -12 35 -15 105 -12 l90 3 0 -196 0 -196 -51 -5 c-60 -6 -100 -33 -113 -75 -11 -40 9 -81 49 -103 26 -14 33 -28 54 -106 22 -79 24 -110 25 -284 0 -180 -3 -212 -37 -415 -47 -285 -61 -431 -52 -580 17 -318 98 -584 213 -707 60 -65 88 -78 162 -78 77 0 124 23 179 87 121 141 194 414 195 728 0 183 -7 242 -59 485 -56 260 -68 363 -62 550 3 91 11 197 17 237 11 67 14 72 41 78 40 9 69 49 69 95 0 47 -39 84 -99 94 l-41 6 0 139 c0 76 -3 166 -7 200 l-6 63 81 -7 82 -8 0 261 0 260 38 -9 c95 -22 166 -1 208 60 46 68 26 159 -47 213 -14 11 -65 27 -112 36 -128 24 -115 35 58 47 50 4 157 15 240 26 1126 143 2183 603 3075 1337 47 39 86 69 88 67 2 -2 -16 -31 -39 -66 -77 -112 -63 -218 34 -268 67 -34 128 -24 180 31 l39 41 168 -168 c108 -108 170 -163 175 -155 4 6 14 9 23 5 11 -4 38 16 84 62 l68 68 136 -136 136 -136 -36 -54 c-44 -66 -46 -100 -7 -140 31 -30 86 -40 107 -19 7 7 37 -6 92 -39 173 -104 291 -225 486 -497 209 -291 342 -437 523 -573 273 -206 505 -282 643 -211 70 36 100 95 100 196 0 176 -107 388 -319 633 -92 105 -204 195 -439 352 -122 81 -256 175 -296 208 -92 76 -205 197 -279 299 -56 78 -57 80 -42 108 8 16 15 35 15 42 0 28 -30 70 -59 82 -36 15 -65 9 -112 -23 l-35 -23 -148 143 -149 143 23 25 c13 13 26 22 30 20 4 -2 20 9 36 26 l28 30 -177 177 c-97 97 -177 181 -177 185 0 4 22 21 49 38 106 65 120 193 30 262 -70 53 -126 48 -226 -19 -38 -25 -72 -49 -78 -52 -5 -3 7 14 28 38 367 432 622 816 862 1302 302 610 488 1236 579 1938 13 102 24 176 25 166 4 -73 82 -146 156 -146 109 0 178 100 147 213 l-10 37 254 0 254 0 0 95 0 95 194 0 194 0 7 -50 c16 -117 122 -157 175 -67 23 38 44 46 185 73 140 26 364 15 640 -30 363 -60 567 -65 820 -21 330 57 525 182 525 337 0 53 -44 133 -97 178 -147 123 -503 210 -798 196 -136 -7 -248 -23 -438 -66 -233 -51 -343 -63 -532 -57 -93 3 -200 11 -237 18 -64 11 -68 14 -79 46 -11 33 -51 63 -84 63 -50 0 -85 -41 -100 -118 l-7 -32 -194 0 -194 0 0 75 0 75 -256 0 -256 0 8 38 c5 20 9 60 9 88 0 161 -229 209 -295 62 l-18 -42 -6 35 c-2 19 -14 115 -26 214 -126 1073 -590 2169 -1276 3015 -55 67 -108 134 -119 149 -19 26 -19 26 0 10 131 -110 295 -52 295 103 0 54 -28 102 -76 130 l-36 21 176 176 c97 97 176 181 176 186 0 5 -30 40 -67 77 l-68 68 137 137 137 137 44 -31 c57 -41 87 -48 125 -29 40 21 59 68 44 109 -10 28 -8 37 19 86 91 162 244 318 478 486 328 235 464 357 604 543 159 212 237 385 237 530 0 178 -125 255 -331 203 -176 -44 -369 -163 -550 -341 -115 -114 -195 -217 -334 -435 -50 -77 -117 -176 -149 -220 -77 -104 -218 -244 -330 -327 -87 -65 -90 -66 -117 -52 -40 20 -74 17 -106 -10 -37 -32 -38 -88 -2 -142 l26 -39 -134 -139 -135 -139 -54 54 -54 54 -184 -184 -183 -183 -19 27 c-64 90 -98 115 -159 115 -74 0 -135 -47 -155 -119 -12 -46 -1 -90 40 -154 29 -47 28 -46 -98 56 -800 651 -1772 1093 -2777 1262 -172 28 -372 55 -417 55 l-31 0 36 37 c87 86 62 216 -48 258 -41 16 -86 16 -131 -2 -12 -4 -14 33 -14 251 l0 256 -100 0 -100 0 0 193 0 192 61 12 c33 6 69 19 80 29 44 39 27 137 -26 150 -19 5 -27 17 -39 57 -35 124 -41 176 -40 342 0 153 5 197 44 430 42 250 44 268 44 470 0 171 -4 231 -22 325 -25 137 -62 260 -106 349 -34 71 -112 163 -157 187 -42 21 -109 26 -150 11z m55 -79 c-5 -7 -24 -33 -43 -58 -47 -63 -107 -190 -132 -285 -42 -157 -37 -511 12 -815 45 -280 59 -402 64 -545 6 -173 -5 -170 -29 10 -9 66 -39 228 -66 360 -71 338 -83 442 -77 660 4 152 9 196 31 280 36 138 90 244 171 333 63 68 86 88 69 60z m6676 -2715 c-228 -50 -403 -154 -585 -345 -94 -99 -211 -241 -291 -354 -166 -237 -349 -458 -417 -506 -28 -20 -26 -15 19 42 28 36 119 167 202 291 295 442 423 592 622 731 151 106 297 155 460 156 l55 0 -65 -15z m-13401 -193 c40 -148 114 -282 240 -428 73 -85 259 -244 471 -401 302 -224 417 -321 483 -406 l32 -40 -53 47 c-30 26 -162 120 -295 209 -313 210 -447 310 -570 428 -228 219 -339 436 -336 661 2 82 2 83 9 30 4 -30 13 -75 19 -100z m7256 -686 c1425 -119 2727 -731 3725 -1750 882 -901 1445 -2034 1625 -3269 45 -314 59 -515 59 -870 0 -354 -13 -529 -60 -850 -112 -756 -381 -1505 -776 -2163 -681 -1134 -1733 -2016 -2960 -2483 -955 -362 -1980 -470 -2998 -313 -1543 237 -2938 1091 -3863 2364 -580 798 -951 1729 -1076 2700 -39 301 -46 411 -45 765 0 466 27 746 114 1175 280 1384 1070 2640 2206 3507 1158 882 2609 1308 4049 1187z m8455 -5604 c206 -22 382 -91 498 -195 70 -64 85 -95 20 -42 -97 78 -233 135 -387 162 -163 29 -471 15 -773 -34 -275 -45 -330 -52 -493 -58 -93 -3 -168 -3 -165 0 3 3 59 12 125 21 66 9 206 33 310 55 441 92 646 114 865 91z m-18319 -444 c223 -123 516 -145 984 -75 458 69 462 70 613 67 l147 -3 -103 -13 c-57 -6 -239 -39 -405 -71 -380 -75 -454 -84 -652 -85 -169 -1 -257 11 -386 49 -121 36 -193 78 -277 162 -53 52 -63 65 -31 40 25 -19 75 -51 110 -71z m15226 -5417 c309 -206 477 -334 592 -448 99 -99 204 -241 247 -334 36 -81 64 -202 63 -276 l-1 -66 -9 60 c-27 188 -168 414 -372 596 -56 50 -183 152 -282 225 -325 242 -399 302 -495 400 -85 87 -89 92 -33 46 34 -28 165 -119 290 -203z m-11205 -15 c-23 -25 -114 -154 -203 -287 -224 -334 -315 -453 -449 -588 -216 -218 -386 -305 -615 -314 l-110 -5 80 14 c145 24 260 72 390 164 159 112 265 230 561 623 109 145 237 303 285 352 91 93 128 117 61 41z m5498 -2153 c0 -49 33 -236 85 -479 65 -307 78 -421 72 -637 -4 -152 -9 -195 -31 -280 -39 -148 -90 -246 -175 -335 -75 -78 -82 -78 -22 0 47 61 106 189 133 285 21 74 23 101 22 335 0 210 -4 280 -22 395 -63 406 -73 483 -78 625 -4 111 -3 151 5 140 6 -8 11 -30 11 -49z M9175 15379 c-1408 -113 -2709 -722 -3685 -1725 -931 -958 -1483 -2149 -1617 -3494 -24 -245 -24 -805 0 -1050 121 -1208 559 -2253 1333 -3185 136 -165 530 -559 694 -695 956 -794 2055 -1242 3290 -1341 187 -14 653 -14 840 0 1234 99 2328 544 3285 1337 167 138 560 531 699 699 461 555 795 1138 1030 1798 153 432 249 868 302 1382 25 239 26 809 1 1055 -73 726 -250 1359 -556 1986 -302 618 -669 1127 -1157 1604 -940 918 -2104 1466 -3434 1616 -169 19 -847 28 -1025 13z m492 -310 c38 -14 83 -57 99 -96 45 -106 -40 -233 -156 -233 -85 0 -170 83 -170 166 0 117 120 204 227 163z m463 -673 c958 -114 1792 -468 2533 -1073 166 -136 482 -450 617 -613 636 -769 993 -1616 1102 -2615 17 -161 17 -760 0 -920 -124 -1131 -578 -2101 -1356 -2894 -818 -833 -1883 -1328 -3059 -1422 -194 -15 -705 -7 -887 15 -1392 167 -2607 892 -3403 2034 -1010 1448 -1134 3355 -322 4920 579 1113 1559 1952 2742 2348 380 127 739 199 1193 238 116 10 712 -3 840 -18z m-4224 -855 c164 -75 93 -336 -86 -319 -103 10 -166 84 -158 184 10 122 128 188 244 135z m7507 8 c112 -31 158 -155 96 -256 -30 -48 -77 -73 -138 -73 -60 0 -98 17 -135 60 -76 91 -41 226 69 265 49 17 60 18 108 4z m-9038 -3792 c59 -33 85 -78 85 -147 0 -43 -6 -66 -23 -91 -26 -39 -97 -79 -142 -79 -45 0 -116 40 -142 79 -32 48 -32 135 0 182 30 44 92 79 142 79 23 0 57 -10 80 -23z m10610 -20 c59 -33 85 -78 85 -147 0 -69 -26 -114 -85 -147 -75 -43 -172 -18 -222 56 -17 26 -23 48 -23 91 0 43 6 65 23 91 30 44 92 79 142 79 23 0 57 -10 80 -23z m-9080 -3726 c178 -80 112 -335 -82 -319 -92 8 -153 73 -153 162 0 70 32 124 90 154 53 27 92 28 145 3z m7502 -12 c116 -44 144 -212 47 -288 -121 -95 -301 2 -281 151 7 52 47 110 88 131 39 19 105 22 146 6z m-3737 -1562 c106 -56 119 -193 27 -274 -85 -74 -219 -42 -263 64 -33 78 1 170 76 210 55 29 105 29 160 0z M9350 14339 c-1150 -63 -2244 -553 -3065 -1374 -1033 -1033 -1525 -2466 -1345 -3913 137 -1096 663 -2117 1480 -2871 1117 -1030 2643 -1456 4130 -1155 1425 289 2653 1243 3294 2559 612 1256 631 2734 51 4005 -570 1249 -1669 2195 -2988 2574 -351 101 -681 155 -1072 176 -210 11 -259 11 -485 -1z m1020 -264 c662 -114 1301 -382 1858 -781 l127 -91 5 -54 c6 -62 16 -81 78 -163 l45 -58 -204 -204 c-112 -112 -207 -204 -210 -204 -3 0 -25 27 -48 60 -54 77 -75 90 -144 92 -62 2 -99 -16 -125 -62 l-16 -28 -86 58 c-409 274 -870 467 -1334 557 l-146 28 0 35 c0 40 -28 92 -63 115 -29 18 -61 21 -139 10 l-58 -8 0 292 c0 160 1 291 3 291 76 11 165 33 190 47 18 10 40 36 51 60 17 36 24 41 45 37 15 -2 91 -15 171 -29z m-1328 -14 c9 -21 27 -47 42 -56 30 -20 133 -44 189 -45 l37 0 0 -296 0 -296 -27 6 c-16 3 -57 9 -93 12 -58 5 -69 3 -99 -17 -47 -33 -72 -69 -78 -116 l-5 -39 -75 -13 c-454 -76 -1001 -308 -1406 -596 l-102 -72 -13 35 c-17 49 -38 70 -84 84 -65 19 -110 -1 -158 -72 -23 -33 -44 -60 -48 -60 -4 0 -98 91 -210 203 l-203 203 34 45 c51 67 77 119 77 159 1 33 7 40 103 111 329 245 680 440 1057 589 321 126 583 195 1000 263 14 2 30 5 36 6 6 0 18 -17 26 -38z m618 -1021 c43 -43 11 -120 -50 -120 -38 0 -70 32 -70 70 0 38 32 70 70 70 17 0 39 -9 50 -20z m650 -399 c328 -76 702 -234 949 -399 79 -54 84 -59 86 -94 2 -37 28 -83 103 -184 l31 -40 -183 -183 c-108 -108 -188 -181 -195 -177 -6 4 -18 20 -26 36 -18 35 -62 60 -106 60 -22 0 -41 -10 -65 -34 -47 -47 -46 -85 7 -166 l41 -63 -239 -239 c-131 -131 -240 -238 -243 -238 -3 1 -25 29 -50 63 -58 80 -103 104 -165 88 -49 -12 -78 -5 -136 35 -23 15 -54 26 -85 28 -27 2 -68 9 -91 15 l-43 12 0 322 0 323 43 11 c60 16 95 47 103 90 13 70 -50 141 -117 131 l-29 -5 2 261 3 260 83 13 c92 14 125 31 144 74 16 36 21 36 178 0z m-1278 -10 c23 -41 68 -62 173 -77 49 -8 95 -14 100 -14 6 0 10 -94 10 -261 l0 -260 -60 6 c-50 5 -66 2 -92 -14 -61 -38 -61 -135 0 -176 14 -9 52 -21 86 -27 l60 -11 3 -314 c3 -271 1 -314 -12 -317 -8 -3 -52 -12 -96 -21 -45 -9 -119 -31 -164 -50 -61 -25 -97 -34 -136 -34 -60 1 -92 -14 -121 -57 -10 -15 -31 -40 -46 -57 l-29 -30 -239 239 c-131 131 -239 243 -239 247 0 5 9 22 20 37 61 86 17 180 -85 180 -27 0 -44 -8 -65 -28 l-28 -29 -184 184 c-141 141 -181 186 -173 197 69 98 95 143 95 165 0 22 16 37 108 97 293 194 593 326 937 415 83 21 152 38 155 39 3 0 12 -13 22 -29z m-2532 -336 c230 -230 217 -201 118 -265 -25 -17 -53 -46 -62 -64 -36 -77 -9 -167 61 -200 l40 -20 -82 -125 c-143 -221 -246 -416 -335 -642 -89 -224 -170 -507 -206 -730 l-18 -105 -42 14 c-38 13 -46 12 -87 -6 -71 -32 -87 -75 -72 -194 l8 -58 -291 0 c-315 0 -302 -2 -302 55 0 61 -23 129 -57 166 l-35 39 11 82 c101 719 384 1423 810 2021 74 103 87 117 113 117 41 0 84 21 153 74 33 25 62 46 65 46 3 0 97 -92 210 -205z m6439 176 c71 -57 132 -83 177 -77 l41 5 85 -117 c348 -480 584 -981 728 -1548 41 -163 59 -254 106 -541 3 -19 1 -33 -5 -33 -6 0 -26 -14 -45 -30 -36 -32 -50 -72 -64 -185 l-7 -60 -293 -3 -292 -2 0 24 c0 14 5 48 11 77 15 70 0 116 -51 163 -34 31 -47 36 -88 36 l-48 0 -12 83 c-72 459 -283 978 -575 1410 -44 65 -78 119 -76 120 2 2 16 8 32 15 35 15 67 68 67 110 0 61 -20 85 -135 164 -6 5 75 92 195 213 113 113 206 205 208 205 2 0 21 -13 41 -29z m-5711 -381 c46 -43 18 -120 -42 -120 -37 0 -49 7 -65 37 -17 33 -14 51 14 78 29 30 64 32 93 5z m4827 -5 c47 -46 19 -115 -47 -115 -67 0 -94 78 -42 119 35 27 59 26 89 -4z m34 -679 c50 -2 60 -13 157 -173 176 -289 303 -605 380 -945 l25 -111 -35 -29 c-19 -15 -39 -43 -45 -61 -8 -26 -31 -169 -31 -195 0 -4 -117 -7 -261 -7 l-260 0 6 60 c5 50 2 66 -14 92 -38 61 -135 61 -176 0 -9 -14 -21 -54 -27 -89 l-10 -63 -339 0 -339 0 0 33 c0 18 5 53 11 77 15 61 5 93 -46 140 -55 52 -76 100 -58 135 33 64 5 128 -82 185 l-57 38 244 244 c133 133 247 243 251 243 5 0 23 -10 40 -22 47 -34 111 -32 143 5 44 52 44 108 -2 154 l-26 26 182 182 183 183 72 -50 c55 -38 81 -50 114 -52z m-4610 -90 l183 -183 -27 -19 c-73 -50 -93 -95 -70 -151 32 -77 106 -87 194 -26 l59 40 237 -237 c267 -267 259 -251 165 -309 -62 -38 -85 -84 -76 -148 6 -44 -20 -132 -55 -183 -10 -15 -19 -54 -23 -101 -9 -121 29 -109 -341 -109 l-323 0 -11 46 c-26 104 -119 138 -187 70 -28 -28 -34 -42 -34 -75 l0 -41 -255 0 c-196 0 -257 3 -260 13 -2 6 -9 45 -15 84 -8 47 -21 86 -37 110 -25 37 -26 39 -14 113 30 183 108 443 193 640 99 232 267 520 303 520 20 0 101 49 165 102 19 15 37 28 40 28 3 0 88 -83 189 -184z m2184 -454 c23 -21 22 -74 -3 -97 -42 -38 -120 -11 -120 42 0 71 69 102 123 55z m-899 -313 c19 -15 26 -30 26 -54 0 -37 -37 -75 -72 -75 -27 0 -68 45 -68 75 0 30 41 75 68 75 11 0 31 -9 46 -21z m1750 0 c19 -15 26 -30 26 -54 0 -37 -37 -75 -72 -75 -27 0 -68 45 -68 75 0 30 41 75 68 75 11 0 31 -9 46 -21z m-734 -140 c232 -59 433 -227 531 -445 63 -138 86 -329 58 -480 -53 -289 -295 -547 -586 -626 -119 -32 -298 -29 -416 6 -231 69 -397 208 -506 423 -56 112 -75 202 -75 348 0 146 14 213 70 333 138 299 447 486 769 465 44 -3 114 -14 155 -24z m-3520 -749 c11 -11 20 -33 20 -50 0 -17 -9 -39 -20 -50 -11 -11 -33 -20 -50 -20 -17 0 -39 9 -50 20 -11 11 -20 33 -20 50 0 17 9 39 20 50 11 11 33 20 50 20 17 0 39 -9 50 -20z m2175 0 c39 -43 10 -120 -45 -120 -62 0 -96 75 -55 120 24 26 76 26 100 0z m2425 -18 c16 -13 23 -29 22 -51 -2 -94 -135 -95 -135 -1 0 61 65 91 113 52z m2180 -2 c43 -43 11 -120 -50 -120 -38 0 -70 32 -70 70 0 38 32 70 70 70 17 0 39 -9 50 -20z m-7210 -345 c0 -13 -5 -47 -11 -76 -15 -70 0 -116 51 -163 34 -30 47 -36 86 -36 25 0 54 4 64 10 16 8 19 4 25 -38 11 -79 82 -360 118 -472 112 -338 295 -701 502 -992 l56 -78 -28 0 c-52 0 -104 -48 -117 -106 -11 -51 15 -97 83 -146 l60 -44 -207 -207 -207 -206 -60 46 c-63 48 -112 73 -144 73 -21 0 -111 114 -228 290 -352 528 -587 1118 -693 1733 l-28 169 29 26 c23 21 33 43 44 97 8 39 15 84 15 101 0 17 3 34 7 37 3 4 136 7 295 7 l288 0 0 -25z m1345 -36 c-11 -94 23 -139 105 -139 56 0 93 37 109 108 6 29 11 59 11 67 0 12 52 15 329 17 l330 3 10 -40 c5 -22 7 -63 4 -91 -6 -56 13 -106 47 -124 32 -17 51 -66 53 -136 2 -63 4 -67 43 -102 22 -21 53 -47 69 -59 l30 -21 -244 -245 -244 -245 -36 24 c-38 26 -98 32 -132 14 -10 -6 -26 -24 -34 -40 -23 -45 -19 -85 14 -123 l30 -33 -184 -184 -184 -184 -23 21 c-39 36 -121 83 -144 83 -21 0 -91 97 -196 275 -134 226 -268 565 -328 828 l-23 98 26 52 c20 41 47 170 47 226 0 3 117 6 261 6 l260 0 -6 -56z m4636 -4 c21 -82 84 -120 152 -91 40 16 67 59 67 106 l0 30 259 0 258 0 7 -62 c9 -77 29 -127 61 -153 l24 -20 -19 -90 c-77 -350 -207 -668 -402 -978 -76 -122 -89 -137 -115 -137 -33 0 -77 -24 -150 -81 -35 -27 -66 -49 -70 -49 -5 0 -91 83 -192 184 l-184 184 42 27 c76 47 89 129 29 180 -45 38 -91 34 -165 -14 l-60 -39 -242 242 -242 243 33 24 c18 14 46 33 61 42 60 38 83 117 52 177 -18 34 -10 60 17 60 11 0 38 18 61 40 l40 40 -6 63 c-4 34 -9 74 -13 90 l-6 27 346 0 346 0 11 -45z m2167 -45 c13 -94 33 -136 73 -158 29 -16 30 -19 23 -67 -3 -27 -19 -115 -35 -195 -136 -664 -403 -1268 -807 -1822 -84 -115 -86 -118 -124 -118 -46 0 -96 -24 -166 -79 -28 -23 -55 -41 -59 -41 -5 0 -99 91 -211 203 -228 228 -216 201 -120 266 58 39 78 74 78 139 0 54 -22 91 -71 121 l-29 18 45 60 c135 181 322 523 412 753 86 221 162 483 194 672 l13 76 55 -5 c69 -5 115 19 138 75 13 31 14 47 4 98 -6 34 -11 66 -11 73 0 8 81 11 293 11 l293 0 12 -80z m-5199 -403 c52 -43 13 -127 -59 -127 -20 0 -60 44 -60 66 0 64 70 100 119 61z m1724 -29 c9 -11 17 -31 17 -45 0 -29 -41 -73 -68 -73 -30 0 -72 38 -72 66 0 74 76 106 123 52z m-860 -346 c41 -36 6 -115 -51 -115 -83 0 -100 108 -22 136 20 7 51 -2 73 -21z m-858 -168 c57 -85 117 -112 191 -84 39 15 57 5 76 -40 13 -32 27 -45 63 -61 41 -18 53 -19 98 -9 29 6 60 13 70 15 16 3 17 -19 17 -345 l0 -347 -37 -6 c-50 -8 -82 -32 -100 -74 -28 -69 23 -143 98 -143 l39 0 0 -259 0 -259 -72 -11 c-40 -7 -87 -19 -104 -27 -29 -15 -40 -14 -140 6 -332 67 -687 209 -994 397 -103 63 -117 75 -139 119 -13 27 -45 77 -72 111 -27 35 -49 66 -49 70 0 5 83 91 184 192 l184 184 26 -41 c49 -79 129 -92 180 -31 39 46 35 92 -13 165 l-39 59 241 242 c132 133 244 240 248 237 4 -2 24 -29 44 -60z m1919 -193 l239 -239 -27 -53 c-14 -29 -26 -61 -26 -71 0 -35 29 -75 65 -93 44 -20 79 -14 118 23 l28 26 183 -183 184 -184 -35 -45 c-42 -56 -73 -115 -73 -141 0 -39 -364 -241 -602 -335 -148 -58 -353 -120 -499 -150 -104 -22 -116 -22 -144 -8 -24 12 -179 42 -220 42 -6 0 -10 94 -10 261 l0 260 60 -6 c50 -5 66 -2 92 14 61 38 61 135 0 176 -14 9 -54 21 -89 27 l-63 10 0 340 0 340 60 -8 c121 -16 143 -12 181 29 19 21 34 47 34 61 0 32 16 36 59 14 19 -10 46 -18 58 -18 39 0 90 27 109 57 30 47 66 93 73 93 3 0 114 -108 245 -239z m-3464 -811 c27 -27 26 -74 -2 -100 -28 -26 -58 -26 -92 1 -50 40 -21 119 44 119 17 0 39 -9 50 -20z m4795 -15 c46 -45 19 -118 -43 -118 -69 0 -99 80 -46 122 35 27 59 26 89 -4z m-4845 -586 c47 -68 81 -89 143 -89 57 0 106 32 132 87 l20 41 63 -45 c175 -126 504 -302 722 -388 221 -87 521 -170 737 -205 l72 -12 -20 -27 c-46 -63 -29 -151 38 -192 29 -18 43 -21 91 -15 31 4 66 9 79 12 l23 6 0 -295 0 -294 -77 -13 c-75 -12 -131 -32 -144 -52 -4 -6 -36 -6 -85 2 -746 108 -1434 389 -2046 838 -69 50 -88 69 -88 88 0 33 -29 89 -79 152 -23 28 -41 55 -41 59 0 14 403 412 412 407 4 -3 26 -32 48 -65z m5260 -351 c0 -4 -23 -39 -51 -78 -39 -53 -53 -81 -57 -116 -4 -43 -9 -48 -81 -103 -431 -326 -934 -572 -1478 -721 -164 -45 -403 -94 -544 -111 -93 -12 -95 -11 -132 14 -33 22 -95 38 -197 49 l-25 3 -3 293 -2 292 21 0 c12 0 50 -5 84 -12 76 -13 110 -3 155 48 37 43 47 93 27 144 l-15 39 42 6 c22 4 112 22 199 41 438 97 868 283 1258 545 77 51 90 57 95 42 15 -48 40 -83 69 -97 72 -35 126 -13 186 75 l41 61 204 -203 c112 -112 204 -207 204 -211z m-2810 -48 c11 -11 20 -33 20 -50 0 -17 -9 -39 -20 -50 -11 -11 -33 -20 -50 -20 -17 0 -39 9 -50 20 -11 11 -20 33 -20 50 0 17 9 39 20 50 11 11 33 20 50 20 17 0 39 -9 50 -20z M9430 10315 c-36 -8 -107 -35 -159 -61 -77 -38 -109 -62 -175 -128 -144 -145 -197 -265 -204 -467 -5 -146 14 -234 76 -354 44 -85 180 -226 262 -273 152 -85 349 -114 510 -73 163 41 289 121 385 242 105 135 149 263 149 434 0 131 -18 206 -75 315 -88 171 -221 284 -404 346 -100 33 -263 42 -365 19z m236 -450 c209 -62 234 -345 39 -448 -53 -28 -154 -29 -208 -3 -86 42 -136 123 -137 219 0 68 16 110 60 161 66 75 151 100 246 71z"/>
</g>
</svg>
